# xmcd CD database file
#
# Track frame offsets:
#	150
#	20722
#	43282
#	60030
#	78720
#	94577
#	117705
#	133122
#	148330
#	166730
#
# Disc length: 2470 seconds
#
# Revision: 3
# Processed by: cddbd v1.5.2PL0 Copyright (c) Steve Scherf et al.
# Submitted via: CDex 1.51
#
DISCID=8d09a40a
DTITLE=Lightnin' Hopkins - Lightnin'
DYEAR=1960
DGENRE=Blues
TTITLE0=Automobile Blues
TTITLE1=You Better Watch Yourself
TTITLE2=Mean Old Frisco
TTITLE3=Shinin' Moon
TTITLE4=Come Back Baby
TTITLE5=Thinkin' 'Bout An Old Friend
TTITLE6=The Walkin' Blues
TTITLE7=Back To New Orleans
TTITLE8=Katie Mae
TTITLE9=Down There Baby
EXTD=YEAR: 1960
EXTT0=
EXTT1=
EXTT2=
EXTT3=
EXTT4=
EXTT5=
EXTT6=
EXTT7=
EXTT8=
EXTT9=
PLAYORDER=
